# xmcd CD Database Entry
#
# Track frame offsets:
# 151
# 19525
# 35383
# 53927
# 75037
# 90601
# 110335
# 134456
# 150799
# 170779
# 193330
# 209522
# 228694
# 249105
# 265106
# 284788
# 302561
# 322066
# 340129
#
# Disc length: 4726 seconds
#
# Revision: 1
# Processed by: cddbd v1.4PL0 Copyright (c) Steve Scherf et al.
# Submitted via: tcd 2.0b
#
DISCID=04127413
DTITLE=不明了
DYEAR=1900
DGENRE=
TTITLE0=第 1 音轨
TTITLE1=第 2 音轨
TTITLE2=第 3 音轨
TTITLE3=第 4 音轨
TTITLE4=第 5 音轨
TTITLE5=第 6 音轨
TTITLE6=第 7 音轨
TTITLE7=第 8 音轨
TTITLE8=第 9 音轨
TTITLE9=第 10 音轨
TTITLE10=第 11 音轨
TTITLE11=第 12 音轨
TTITLE12=第 13 音轨
TTITLE13=第 14 音轨
TTITLE14=第 15 音轨
TTITLE15=第 16 音轨
TTITLE16=第 17 音轨
TTITLE17=第 18 音轨
TTITLE18=第 19 音轨
EXTD=
EXTT0=
EXTT1=
EXTT2=
EXTT3=
EXTT4=
EXTT5=
EXTT6=
EXTT7=
EXTT8=
EXTT9=
EXTT10=
EXTT11=
EXTT12=
EXTT13=
EXTT14=
EXTT15=
EXTT16=
EXTT17=
EXTT18=
PLAYORDER=
